<svg width="320" height="51" viewBox="0 0 374 51" fill="none" xmlns="http://www.w3.org/2000/svg">
<path d="M193.691 14.205L192.931 17.5862L174.015 13.3338L174.775 9.95218L193.691 14.205" fill="#8ECAC0"/>
<path d="M189.593 32.4475L190.352 29.0659L171.436 24.8135L170.676 28.1946L189.593 32.4475" fill="#8ECAC0"/>
<path d="M187.182 5.49006L192.281 6.63667L185.081 38.6846L179.982 37.5384L187.182 5.49006Z" fill="#5FE1CB"/>
<path d="M-1.1988e-05 31.0189V32.3151C3.6091 33.1775 7.34536 34.373 11.2004 35.8975C14.8407 37.3395 18.7004 38.2522 22.2457 38.8318C22.2769 38.8365 22.3095 38.8411 22.3365 38.8458C22.4092 38.8546 22.4781 38.8686 22.5466 38.8775C26.4975 39.5078 30.0335 39.7222 32.3823 39.7855C32.4461 39.7902 32.5053 39.7902 32.5696 39.7902C32.6562 39.7948 32.7479 39.7948 32.8341 39.7995C32.9394 39.7995 33.04 39.8042 33.1396 39.8042C33.2812 39.8042 33.4182 39.8088 33.5504 39.8088C33.7875 39.8135 34.0022 39.8135 34.1936 39.8135C34.9193 39.8135 35.3343 39.7948 35.3571 39.7948C36.7944 39.7627 38.1125 39.4207 39.3584 38.8318C40.4804 38.303 41.5479 37.5724 42.5972 36.6825C43.3363 36.0531 44.0662 35.3454 44.7965 34.5743C44.8328 34.5379 44.8645 34.5053 44.8971 34.469C44.9469 34.4191 44.9968 34.3641 45.0424 34.3138C45.1067 34.2458 45.1658 34.1815 45.225 34.113C45.7042 33.5926 46.1877 33.0498 46.6711 32.4837C46.7401 32.4017 46.8081 32.3197 46.8765 32.2372C47.6748 31.3017 48.4824 30.3112 49.3264 29.2796C54.8372 22.5397 61.6949 14.1514 74.2814 8.52408C78.1322 6.80346 82.3519 5.62143 86.9279 4.978C86.9876 4.96915 87.0509 4.95983 87.1105 4.95471C87.635 4.87736 88.1641 4.814 88.7025 4.75902C88.8985 4.73619 89.1044 4.71337 89.3047 4.6952C89.5194 4.67237 89.7336 4.65373 89.9483 4.63556C90.1309 4.61739 90.3177 4.60388 90.5045 4.5899C99.1591 3.91479 108.986 5.02367 119.926 7.91234C120.131 7.96732 120.337 8.01763 120.542 8.07214V8.0768C120.656 8.10429 120.77 8.13644 120.889 8.16813C121.158 8.24081 121.432 8.31861 121.706 8.39129C122.212 8.53293 122.714 8.67923 123.224 8.82972C123.284 8.84323 123.343 8.86186 123.402 8.88003C126.031 9.64693 128.727 10.514 131.478 11.4766C132.199 11.7282 132.764 11.9285 133.138 12.0427C136.624 13.138 139.539 13.7405 141.825 14.0596C142.304 14.1286 142.76 14.1831 143.184 14.2287C143.677 14.279 144.133 14.32 144.553 14.3475C146.602 14.4799 147.719 14.3517 147.819 14.3382L147.664 13.0835C147.642 13.0835 146.665 13.1925 144.836 13.0882C144.425 13.0607 143.964 13.0239 143.463 12.9782C143.043 12.9326 142.587 12.8776 142.103 12.8142C139.858 12.5081 136.971 11.9238 133.517 10.8378C133.161 10.7283 132.604 10.5322 131.897 10.281C130.127 9.66044 127.267 8.66106 123.663 7.60203C122.755 7.33739 121.796 7.06856 120.797 6.7988C120.711 6.77177 120.629 6.74848 120.542 6.73031C116.865 5.74956 112.636 4.79537 108.115 4.11979C101.668 3.15721 95.6599 2.90609 90.1258 3.36688C90.062 3.36688 90.0028 3.37154 89.939 3.38086C88.9307 3.46286 87.941 3.57234 86.9694 3.70932C82.1745 4.36206 77.7624 5.58043 73.7663 7.36954C60.9008 13.1199 53.9434 21.6358 48.3506 28.4769C47.4149 29.6225 46.5295 30.7039 45.6768 31.7038C45.5808 31.8128 45.4849 31.9223 45.3936 32.0322C45.184 32.2736 44.9786 32.5065 44.7732 32.7348C44.7276 32.7898 44.6777 32.8443 44.6321 32.8993C44.4085 33.1453 44.1891 33.3829 43.9702 33.6154C43.8566 33.7435 43.7378 33.8665 43.6102 33.99C42.8804 34.7564 42.1547 35.4413 41.4202 36.0303C40.3797 36.874 39.3216 37.5272 38.2084 37.9559C37.2913 38.3072 36.338 38.508 35.3156 38.5308C35.2844 38.5308 34.6226 38.5536 33.4866 38.5397C32.9571 38.5355 32.3232 38.5215 31.6022 38.4945C31.3516 38.4805 31.0819 38.4716 30.8086 38.4581C28.6964 38.3528 25.9955 38.1339 23.0393 37.6773C22.9569 37.6637 22.8707 37.6498 22.7883 37.6409C22.7655 37.6363 22.7427 37.6316 22.7245 37.6269C19.1843 37.0655 15.3111 36.1621 11.6657 34.7248C7.65088 33.1365 3.75907 31.9041 -1.1988e-05 31.0189" fill="#8ECAC0"/>
<path d="M157.016 0.702696L167.096 2.96936L160.419 32.6919L150.339 30.4252C144.664 29.1496 141.097 23.5134 142.373 17.8367L144.432 8.67168C145.707 2.99499 151.341 -0.572511 157.016 0.702696" fill="#5FE1CB"/>
<path d="M197.568 23.2955L197.778 24.6793C197.866 24.6653 207.219 23.5611 221.941 39.5419C225.22 43.1015 229.891 44.7182 235.834 44.3455C247.39 43.6233 259.905 35.591 263.784 30.1491C266.439 26.4358 269.574 24.4882 273.113 24.3624C279.746 24.1295 288.157 30.1025 298.129 42.1371C301.454 46.1486 304.356 48.0216 306.992 47.8399C310.541 47.6027 312.954 43.7491 315.287 40.0218C317.602 36.3178 319.996 32.4926 323.349 32.2364C326.088 32.0361 329.334 34.156 333.26 38.7312C339.497 45.9995 346.567 49.9225 354.275 50.3931C354.811 50.4257 355.342 50.4443 355.868 50.4443C363.25 50.4443 369.501 47.346 373.273 44.9093V43.204C369.519 45.7391 362.482 49.5032 354.345 49.0005C347.038 48.5481 340.298 44.7881 334.322 37.8227C330.084 32.884 326.46 30.601 323.242 30.8433C319.185 31.1508 316.601 35.2835 314.099 39.281C311.859 42.8686 309.74 46.2558 306.899 46.4421C304.742 46.5866 302.223 44.8864 299.205 41.2472C288.795 28.6861 280.253 22.6991 273.062 22.9647C269.071 23.1091 265.563 25.2523 262.648 29.3384C259.015 34.4309 246.728 42.2675 235.746 42.9524C230.25 43.293 225.947 41.8296 222.966 38.5915C207.661 21.9816 197.973 23.2349 197.568 23.2955" fill="#8ECAC0"/>
<path d="M193.614 39.381L183.533 37.1148L190.21 7.39231L200.291 9.65852C205.965 10.9342 209.532 16.5704 208.257 22.2475L206.198 31.4125C204.922 37.0887 199.288 40.6567 193.614 39.381" fill="#5FE1CB"/>
<path d="M205.038 30.3614L207.696 30.9587L209.417 23.2986L206.759 22.7004L205.038 30.3614" fill="#5FE1CB"/>
</svg>
